<svg width="21" height="21" viewBox="0 0 21 21" fill="none" xmlns="http://www.w3.org/2000/svg">
<path fill-rule="evenodd" clip-rule="evenodd" d="M17.7029 16.5783C19.7826 14.4296 21 12.1867 21 9.58313C21 4.28705 16.2978 0 10.5 0C4.70217 0 0 4.28705 0 9.58313C0 14.874 4.85435 18.5075 10.6522 18.5075V20.2642C10.6522 20.8183 11.2101 21.1739 11.687 20.9124C13.1681 20.0812 15.9123 18.4239 17.6978 16.5783H17.7029ZM5.39203 8.29178C5.78802 8.29039 6.1684 8.45084 6.44983 8.73796C6.73126 9.02509 6.8908 9.41549 6.89348 9.82362C6.89281 10.0262 6.85345 10.2266 6.77763 10.4134C6.70182 10.6003 6.59104 10.7699 6.45162 10.9127C6.31219 11.0554 6.14686 11.1684 5.96505 11.2453C5.78325 11.3222 5.58854 11.3614 5.39203 11.3607C4.99604 11.3607 4.6162 11.1989 4.33572 10.9108C4.05524 10.6227 3.89699 10.2318 3.89565 9.82362C3.89833 9.41639 4.05717 9.02679 4.3375 8.73981C4.61784 8.45283 4.99692 8.29178 5.39203 8.29178ZM11.9964 9.82362C11.9937 9.41549 11.8342 9.02509 11.5527 8.73796C11.2713 8.45084 10.8909 8.29039 10.4949 8.29178C10.0989 8.29039 9.71856 8.45084 9.43713 8.73796C9.15569 9.02509 8.99616 9.41549 8.99348 9.82362C8.99414 10.0262 9.03351 10.2266 9.10932 10.4134C9.18514 10.6003 9.29592 10.7699 9.43534 10.9127C9.57476 11.0554 9.7401 11.1684 9.9219 11.2453C10.1037 11.3222 10.2984 11.3614 10.4949 11.3607C10.6914 11.3614 10.8861 11.3222 11.068 11.2453C11.2498 11.1684 11.4151 11.0554 11.5545 10.9127C11.6939 10.7699 11.8047 10.6003 11.8805 10.4134C11.9563 10.2266 11.9957 10.0262 11.9964 9.82362ZM15.5978 8.29178C15.9929 8.29178 16.372 8.45283 16.6524 8.73981C16.9327 9.02679 17.0915 9.41639 17.0942 9.82362C17.0935 10.0262 17.0542 10.2266 16.9784 10.4134C16.9025 10.6003 16.7918 10.7699 16.6523 10.9127C16.5129 11.0554 16.3476 11.1684 16.1658 11.2453C15.984 11.3222 15.7893 11.3614 15.5928 11.3607C15.1968 11.3607 14.8169 11.1989 14.5364 10.9108C14.256 10.6227 14.0977 10.2318 14.0964 9.82362C14.0991 9.41639 14.2579 9.02679 14.5382 8.73981C14.8186 8.45283 15.1976 8.29178 15.5928 8.29178H15.5978Z" fill="white" fill-opacity="0.9"/>
</svg>
